<svg width="54" height="16" viewBox="0 0 54 16" fill="none" xmlns="http://www.w3.org/2000/svg">
<path d="M2.45246 7.55101C1.00176 8.23491 0.152069 9.51981 0.152069 11.2399C0.152069 14.2657 2.6597 15.965 5.74761 15.965C8.83552 15.965 11.3432 14.2657 11.3432 11.2399C11.3432 9.51981 10.4935 8.25563 9.02204 7.55101C10.1619 6.95 10.9701 5.85162 10.9701 4.2973C10.9701 2.14198 9.31218 0.235352 5.74761 0.235352C2.18304 0.235352 0.504381 2.14198 0.504381 4.2973C0.504381 5.89307 1.2919 6.92928 2.45246 7.55101ZM5.74761 6.59769C4.73212 6.59769 3.96533 5.95524 3.96533 4.85686C3.96533 3.6963 4.69068 3.05385 5.74761 3.05385C6.80455 3.05385 7.5299 3.6963 7.5299 4.83613C7.5299 5.93452 6.7631 6.59769 5.74761 6.59769ZM5.74761 9.0846C7.01179 9.0846 7.88221 9.83067 7.88221 11.0741C7.88221 12.1932 7.09469 13.0637 5.74761 13.0637C4.37981 13.0637 3.57157 12.214 3.57157 11.0741C3.57157 9.78922 4.48343 9.0846 5.74761 9.0846Z" fill="#66808C"/>
<path d="M13.4039 7.90332C13.4039 12.3798 14.9168 15.6127 19.2274 15.6127C23.5381 15.6127 25.0509 12.3798 25.0509 7.90332C25.0509 3.46833 23.5381 0.235352 19.2274 0.235352C14.9168 0.235352 13.4039 3.46833 13.4039 7.90332ZM21.5693 7.90332C21.5693 10.3073 21.3206 12.2969 19.2274 12.2969C17.1343 12.2969 16.8856 10.3073 16.8856 7.90332C16.8856 5.58221 17.1343 3.55123 19.2274 3.55123C21.3206 3.55123 21.5693 5.58221 21.5693 7.90332Z" fill="#66808C"/>
<path d="M26.9232 7.90332C26.9232 12.3798 28.4361 15.6127 32.7468 15.6127C37.0574 15.6127 38.5703 12.3798 38.5703 7.90332C38.5703 3.46833 37.0574 0.235352 32.7468 0.235352C28.4361 0.235352 26.9232 3.46833 26.9232 7.90332ZM35.0886 7.90332C35.0886 10.3073 34.8399 12.2969 32.7468 12.2969C30.6536 12.2969 30.4049 10.3073 30.4049 7.90332C30.4049 5.58221 30.6536 3.55123 32.7468 3.55123C34.8399 3.55123 35.0886 5.58221 35.0886 7.90332Z" fill="#66808C"/>
<path d="M52.4949 7.232H49.6779C49.5864 7.232 49.5122 7.15425 49.5122 7.05836V4.10648C49.5122 3.62702 49.1413 3.23828 48.6837 3.23828C48.2262 3.23828 47.8552 3.62702 47.8552 4.10648V7.05836C47.8552 7.15425 47.781 7.232 47.6895 7.232H44.8726C44.4151 7.232 44.0441 7.62074 44.0441 8.1002C44.0441 8.57966 44.4151 8.9684 44.8726 8.9684H47.6895C47.781 8.9684 47.8552 9.04615 47.8552 9.14204V12.0939C47.8552 12.5734 48.2262 12.9621 48.6837 12.9621C49.1413 12.9621 49.5122 12.5734 49.5122 12.0939V9.14204C49.5122 9.04615 49.5864 8.9684 49.6779 8.9684H52.4949C52.9524 8.9684 53.3234 8.57966 53.3234 8.1002C53.3234 7.62074 52.9524 7.232 52.4949 7.232Z" fill="#66808C"/>
</svg>
