<svg width="35" height="48" viewBox="0 0 35 48" fill="none" xmlns="http://www.w3.org/2000/svg">
<path d="M33.1361 25.2517C32.0496 23.8468 30.4102 22.8818 28.2178 22.3574C31.0096 20.9333 32.2366 18.5163 31.8997 15.1059C31.7871 13.8693 31.4453 12.7975 30.8736 11.889C30.3015 10.9804 29.5295 10.2499 28.5545 9.69725C27.5804 9.14394 26.5209 8.72273 25.3786 8.43234C24.2359 8.14195 22.9241 7.9311 21.4439 7.80008V0.717773H17.1162V7.60331C16.3668 7.60331 15.224 7.62201 13.6878 7.65952V0.717773H9.35952V7.80008C8.74104 7.81889 7.83247 7.82843 6.63341 7.82843L0.675446 7.80008V12.4093H3.7948C5.21878 12.4093 6.05254 13.0465 6.29607 14.3203V22.3864C6.48369 22.3864 6.63341 22.3961 6.74593 22.4148H6.29607V33.7122C6.14635 34.6675 5.60308 35.1457 4.66616 35.1457H1.547L0.675642 40.2889H6.29657C6.65261 40.2889 7.16753 40.2936 7.84231 40.3021C8.5167 40.3115 9.02237 40.3162 9.35971 40.3162V47.4827H13.6887V40.4005C14.4754 40.4197 15.6182 40.4288 17.1171 40.4288V47.4827H21.4449V40.3162C22.9816 40.2414 24.3445 40.1016 25.5337 39.8948C26.7235 39.688 27.862 39.3653 28.9485 38.9247C30.0348 38.4847 30.9434 37.9363 31.674 37.2805C32.405 36.6254 33.0087 35.7912 33.4873 34.7793C33.9643 33.7673 34.2692 32.5963 34.3999 31.2658C34.6445 28.6621 34.2227 26.6572 33.1361 25.2517ZM13.7719 12.7176C13.9032 12.7176 14.2732 12.7129 14.8821 12.7034C15.4913 12.6938 15.997 12.6845 16.3998 12.6751C16.8027 12.6658 17.3461 12.6892 18.0302 12.7454C18.714 12.8016 19.2901 12.8768 19.7583 12.9703C20.2266 13.0638 20.7423 13.2184 21.3039 13.4339C21.8665 13.6492 22.3158 13.9116 22.6527 14.2207C22.9902 14.5298 23.2759 14.9234 23.5097 15.4013C23.7441 15.879 23.8613 16.427 23.8613 17.0451C23.8613 17.5698 23.7771 18.0477 23.6087 18.4789C23.4406 18.9097 23.187 19.2705 22.8501 19.5609C22.5132 19.8514 22.1659 20.1046 21.8099 20.3198C21.4542 20.5351 20.9994 20.7086 20.4469 20.8396C19.8945 20.9708 19.4121 21.0739 19.0001 21.1487C18.5878 21.2237 18.0727 21.2754 17.4543 21.3033C16.8359 21.3313 16.3673 21.3504 16.049 21.3596C15.7303 21.3689 15.2948 21.3689 14.7419 21.3596C14.1889 21.3504 13.8661 21.3454 13.7722 21.3454V12.7175H13.7719V12.7176ZM25.5902 31.8563C25.4118 32.2874 25.1826 32.6624 24.9018 32.9811C24.6204 33.2991 24.2502 33.5804 23.7914 33.8237C23.3327 34.0676 22.8873 34.264 22.4567 34.4139C22.0255 34.5644 21.5054 34.6948 20.8971 34.8076C20.2873 34.9201 19.7537 34.9993 19.2942 35.0464C18.8354 35.0934 18.2876 35.1307 17.6503 35.159C17.0135 35.1866 16.5167 35.2009 16.1609 35.2009C15.8048 35.2009 15.3551 35.1958 14.8117 35.1866C14.2681 35.1778 13.9218 35.1731 13.7717 35.1731V25.6735C13.9215 25.6735 14.3665 25.6643 15.1067 25.6452C15.8471 25.6263 16.451 25.6176 16.9194 25.6176C17.3878 25.6176 18.0344 25.6453 18.8591 25.7019C19.683 25.7577 20.3763 25.8416 20.9389 25.954C21.5008 26.0667 22.1139 26.2397 22.7796 26.4742C23.4445 26.7083 23.9834 26.9939 24.3958 27.3312C24.808 27.669 25.1544 28.0993 25.4354 28.624C25.717 29.1485 25.8575 29.7482 25.8575 30.4229C25.8574 30.948 25.7685 31.425 25.5902 31.8563Z" fill="#66808C"/>
</svg>
