<svg width="48" height="48" viewBox="0 0 48 48" fill="none" xmlns="http://www.w3.org/2000/svg">
<path d="M47.1517 24.1464C47.1076 24.1821 47.0598 24.2142 47.0199 24.2541C45.3655 25.9073 43.7119 27.5612 42.0579 29.2148C42.0032 29.2695 41.947 29.3225 41.906 29.3621C40.1488 27.605 38.4001 25.8563 36.67 24.126C38.3964 22.3998 40.1445 20.6518 41.9081 18.8882C41.9268 18.9046 41.9764 18.9432 42.0205 18.9873C43.7154 20.6829 45.4097 22.3789 47.1047 24.0744C47.1181 24.0878 47.1361 24.0964 47.152 24.1073C47.1517 24.1202 47.1517 24.1333 47.1517 24.1464Z" fill="#66808C"/>
<path d="M14.6211 20.3257C12.8598 18.5647 11.1139 16.8189 9.36442 15.0696C9.42365 14.9638 23.4884 0.876774 23.6969 0.717773C28.4857 5.50604 33.2724 10.2924 38.0634 15.083C38.0047 15.1889 33.08 20.1363 32.8217 20.3361C29.7943 17.3087 26.7647 14.2791 23.7164 11.2308C20.6712 14.2759 17.6418 17.3051 14.6211 20.3257Z" fill="#66808C"/>
<path d="M14.6023 27.8901C17.6421 30.9298 20.668 33.9557 23.7079 36.9954C24.0689 36.6665 24.3931 36.3212 24.7294 35.9887C25.0676 35.6542 25.4026 35.3164 25.739 34.98C26.0754 34.6436 26.4118 34.3072 26.7482 33.9708C27.0846 33.6344 27.421 33.298 27.7574 32.9616C28.0985 32.6207 28.4394 32.2796 28.7805 31.9387C29.1169 31.6023 29.4533 31.2659 29.7896 30.9295C30.126 30.5931 30.4624 30.2567 30.7988 29.9203C31.1352 29.5839 31.4716 29.2475 31.808 28.9111C32.1438 28.5753 32.4797 28.2397 32.8342 27.8853C34.5958 29.6447 36.3458 31.3925 38.0792 33.1236C33.2799 37.9227 28.4902 42.7119 23.7191 47.4829C18.9497 42.7135 14.1602 37.9238 9.3568 33.1204C11.0855 31.3964 12.8369 29.6502 14.6023 27.8901Z" fill="#66808C"/>
<path d="M23.7183 29.4161C21.9548 27.6526 20.1784 25.8763 18.4159 24.114C20.1771 22.3529 21.9532 20.5767 23.7135 18.8167L29.0157 24.1189C27.2537 25.8807 25.4774 27.6571 23.7183 29.4161Z" fill="#66808C"/>
<path d="M0.33287 24.1039L5.54545 18.8914L10.7636 24.1095C9.03318 25.8403 7.28432 27.5896 5.55168 29.3226C3.82871 27.5998 2.0797 25.8508 0.33287 24.1039Z" fill="#66808C"/>
</svg>
