<svg width="47" height="37" viewBox="0 0 47 37" fill="none" xmlns="http://www.w3.org/2000/svg">
<path d="M7.70667 27.6144C7.985 27.3361 8.36764 27.1738 8.77342 27.1738H45.5768C46.2493 27.1738 46.5857 27.9855 46.1102 28.4609L38.84 35.7311C38.5616 36.0094 38.179 36.1717 37.7732 36.1717H0.969804C0.297336 36.1717 -0.0390353 35.36 0.436429 34.8846L7.70667 27.6144Z" fill="#66808C"/>
<path d="M7.70654 0.469607C7.99651 0.19142 8.37915 0.0290527 8.77343 0.0290527H45.5768C46.2493 0.0290527 46.5857 0.840752 46.1102 1.31608L38.84 8.58632C38.5616 8.86465 38.179 9.02688 37.7732 9.02688H0.969814C0.297345 9.02688 -0.0390258 8.21518 0.436439 7.73985L7.70654 0.469607Z" fill="#66808C"/>
<path d="M38.84 13.955C38.5616 13.6766 38.179 13.5144 37.7732 13.5144H0.969804C0.297336 13.5144 -0.0390353 14.3261 0.436429 14.8014L7.70667 22.0717C7.985 22.35 8.36764 22.5122 8.77342 22.5122H45.5768C46.2493 22.5122 46.5857 21.7005 46.1102 21.2252L38.84 13.955Z" fill="#66808C"/>
</svg>
