<?xml version="1.0" encoding="UTF-8"?>
<svg enable-background="new 0 0 480 480" version="1.1" viewBox="0 0 340 340" xml:space="preserve" xmlns="http://www.w3.org/2000/svg" xmlns:cc="http://creativecommons.org/ns#" xmlns:dc="http://purl.org/dc/elements/1.1/" xmlns:rdf="http://www.w3.org/1999/02/22-rdf-syntax-ns#"><metadata><rdf:RDF><cc:Work rdf:about=""><dc:format>image/svg+xml</dc:format><dc:type rdf:resource="http://purl.org/dc/dcmitype/StillImage"/><dc:title/></cc:Work></rdf:RDF></metadata><g transform="translate(-69.754 -70.251)" fill="none" stroke="#2c3242" stroke-miterlimit="10" stroke-width="15.36"><path d="m240 314.39h5e-3c34.579 0 62.873-28.293 62.873-62.877v-34.354h-125.75v34.354c0 34.584 28.295 62.877 62.874 62.877z"/><path d="m209.76 217.16v-54.953m60.475 54.953v-54.953"/><path d="m240 314.39c0 6.676 7e-3 80.18-6e-3 80.18-36.752 0-70.879-13.121-97.398-34.536-35.558-28.856-57.167-72.67-57.167-120.03 0-85.361 69.203-154.56 154.56-154.56s154.56 69.203 154.56 154.56-69.202 154.56-154.56 154.56"/></g></svg>
