<svg width="54" height="48" viewBox="0 0 54 48" fill="none" xmlns="http://www.w3.org/2000/svg">
<path d="M40.3084 15.011C39.337 14.4559 38.088 14.4559 36.9779 15.011L29.2068 19.5903L23.9336 22.5044L16.3013 27.0837C15.3299 27.6388 14.0809 27.6388 12.9708 27.0837L7.0038 23.4758C6.03242 22.9208 5.33865 21.8107 5.33865 20.5617V13.6233C5.33865 12.5132 5.8937 11.4029 7.0038 10.7091L12.9708 7.23995C13.9422 6.6849 15.1912 6.6849 16.3013 7.23995L22.2683 10.8479C23.2397 11.4029 23.9335 12.513 23.9335 13.762V18.3413L29.2067 15.2884V10.5704C29.2067 9.46032 28.6516 8.35006 27.5415 7.65628L16.4402 1.13406C15.4688 0.57901 14.2198 0.57901 13.1097 1.13406L1.73073 7.79501C0.620467 8.35006 0.0654144 9.46016 0.0654144 10.5704V23.6147C0.0654144 24.7248 0.620467 25.8351 1.73057 26.5289L12.9708 33.0509C13.9422 33.606 15.1912 33.606 16.3013 33.0509L23.9336 28.6103L29.2068 25.5575L36.8392 21.1169C37.8105 20.5618 39.0595 20.5618 40.1696 21.1169L46.1366 24.5861C47.108 25.1411 47.8018 26.2512 47.8018 27.5002V34.4386C47.8018 35.5487 47.2467 36.659 46.1366 37.3528L40.3084 40.822C39.337 41.377 38.088 41.377 36.9779 40.822L31.0109 37.3528C30.0395 36.7977 29.3457 35.6876 29.3457 34.4386V29.998L24.0725 33.0509V37.6302C24.0725 38.7403 24.6275 39.8506 25.7376 40.5444L36.9779 47.0664C37.9493 47.6215 39.1983 47.6215 40.3084 47.0664L51.5486 40.5444C52.52 39.9893 53.2138 38.8792 53.2138 37.6302V24.4472C53.2138 23.3371 52.6587 22.2268 51.5486 21.5331L40.3084 15.011Z" fill="#66808C"/>
</svg>
